<svg xmlns="http://www.w3.org/2000/svg" viewBox="0 0 91 91"><title>Asset 2</title><g id="Layer_2" data-name="Layer 2"><g id="Layer_1-2" data-name="Layer 1"><path d="M50.54,21.54l-6.33-4.32L54.05,4.31a2.69,2.69,0,0,0-4.28-3.25L38.22,16.22a2.68,2.68,0,0,0,.62,3.85l7.31,5-1,7.56L31.4,19.32a2.7,2.7,0,0,0-3-.49l-3.69,1.79L4.31,5.19A2.69,2.69,0,0,0,1.06,9.47L22.74,25.9a2.68,2.68,0,0,0,2.79.28L29,24.48l16.24,15.7a2.69,2.69,0,0,0,4.53-1.59l1.9-14.48A2.68,2.68,0,0,0,50.54,21.54Z"/><path d="M46.69,43.54,26.44,46.71a2.64,2.64,0,0,0-.68.19l-9.44,4.19A2.69,2.69,0,1,0,18.5,56l9.12-4,14-2.19L34,61.66l-24.24,12a2.68,2.68,0,0,0-.45,4.53l16,12.29a2.68,2.68,0,1,0,3.28-4.25L16,76.53,37,66.15a2.68,2.68,0,0,0,1.07-1l11.3-17.54a2.69,2.69,0,0,0-2.67-4.11Z"/><path d="M90.88,16.63a2.69,2.69,0,0,0-3.36-1.77L63.76,22.23a2.64,2.64,0,0,0-1.53,1.23l-9,15.9a2.69,2.69,0,0,0,2.33,4h.23l12.47-1a2.69,2.69,0,0,0,1.26-.44l15.45-10.3a2.68,2.68,0,1,0-3-4.47L67.07,37l-6.7.56,6-10.55,22.74-7A2.69,2.69,0,0,0,90.88,16.63Z"/><path d="M81.64,65.87,61.82,58.68l5.35-3.13a2.68,2.68,0,0,0-.12-4.7L56,45.1a2.68,2.68,0,1,0-2.47,4.76l6.74,3.51-6.09,3.56a2.68,2.68,0,0,0,.44,4.84l22,8L72,76.57a2.68,2.68,0,1,0,4.45,3L83,69.9a2.69,2.69,0,0,0-1.31-4Z"/></g></g></svg>