<svg xmlns="http://www.w3.org/2000/svg" viewBox="0 0 91 86.72"><title>Asset 5</title><g id="Layer_2" data-name="Layer 2"><g id="Layer_1-2" data-name="Layer 1"><path d="M88.36,42.86h-6A37.07,37.07,0,0,0,51.46,9.05L47.89,1.51A2.63,2.63,0,0,0,45.5,0h0a2.63,2.63,0,0,0-2.39,1.51L39.54,9.05A37.09,37.09,0,0,0,8.66,42.86h-6a2.64,2.64,0,0,0,0,5.28h6A37,37,0,0,0,13.52,64l-9,19a2.64,2.64,0,0,0,3.28,3.62,2.67,2.67,0,0,0,1.5-1.36L17,69a36.92,36.92,0,0,0,57,0L81.68,85.2a2.67,2.67,0,0,0,1.5,1.36,2.74,2.74,0,0,0,.89.16,2.65,2.65,0,0,0,2.39-3.78l-9-19a36.89,36.89,0,0,0,4.85-15.84h6a2.64,2.64,0,1,0,0-5.28ZM77,48.14a31.34,31.34,0,0,1-2.42,9.78L70,48.14ZM14,42.86A31.55,31.55,0,0,1,36.67,15.1L23.53,42.86Zm12.91,5.28H64.13l7.32,15.47a31.65,31.65,0,0,1-51.9,0Zm27.46-33A31.53,31.53,0,0,1,77,42.86H67.47ZM29.38,42.86,43.07,14a32.85,32.85,0,0,1,4.86,0L61.62,42.86ZM21,48.14l-4.63,9.78A31.57,31.57,0,0,1,14,48.14Z"/></g></g></svg>