<svg xmlns="http://www.w3.org/2000/svg" viewBox="0 0 68.52 91"><title>Asset 1</title><g id="Layer_2" data-name="Layer 2"><g id="Layer_1-2" data-name="Layer 1"><path d="M68.17,38.73c-.46-1.08-1.81-2.9-5.55-2.9H41.75L50.33,8.31c.52-1.68,1.91-6.13-1-7.84s-6.12,1.7-7.32,3L2,46.25c-2.55,2.74-2.14,5-1.67,6s1.81,2.89,5.55,2.89H26.77L18.19,82.7c-.52,1.67-1.91,6.12,1,7.83a3.37,3.37,0,0,0,1.72.47c2.14,0,4.22-2,5.6-3.45l40-42.79C69.05,42,68.64,39.81,68.17,38.73ZM31.78,56a4.35,4.35,0,0,0-4.27-5.81H5.9c-.22,0-.41,0-.57,0a3.2,3.2,0,0,1,.37-.44L45.45,7.1,36.74,35.05A4.36,4.36,0,0,0,41,40.86H62.62a4.67,4.67,0,0,1,.57,0,5.09,5.09,0,0,1-.37.44L23.07,83.91Z"/></g></g></svg>