<svg xmlns="http://www.w3.org/2000/svg" viewBox="0 0 91 91"><title>Asset 3</title><g id="Layer_2" data-name="Layer 2"><g id="Layer_1-2" data-name="Layer 1"><path d="M45.5,67.25a4.6,4.6,0,1,0,4.59,4.59A4.6,4.6,0,0,0,45.5,67.25Z"/><path d="M45.5,0A45.5,45.5,0,1,0,91,45.5,45.55,45.55,0,0,0,45.5,0ZM85.91,45.5A40.41,40.41,0,1,1,45.5,5.09,40.46,40.46,0,0,1,85.91,45.5Z"/><path d="M44.46,61.31,39.22,23.36A6.36,6.36,0,0,1,45.5,16h0a6.36,6.36,0,0,1,6.28,7.36l-5.24,38A1.05,1.05,0,0,1,44.46,61.31Z"/></g></g></svg>