<svg xmlns="http://www.w3.org/2000/svg" viewBox="0 0 91 91"><title>Asset 4</title><g id="Layer_2" data-name="Layer 2"><g id="Layer_1-2" data-name="Layer 1"><circle cx="27.09" cy="35.27" r="4.59"/><path d="M63.91,47.05a2.55,2.55,0,0,0-2.55,2.54,15.86,15.86,0,1,1-31.72,0,2.55,2.55,0,0,0-5.1,0,21,21,0,1,0,41.91,0A2.54,2.54,0,0,0,63.91,47.05Z"/><path d="M63.91,30.68a4.59,4.59,0,1,0,4.59,4.59A4.6,4.6,0,0,0,63.91,30.68Z"/><path d="M45.5,0A45.5,45.5,0,1,0,91,45.5,45.55,45.55,0,0,0,45.5,0ZM85.91,45.5A40.41,40.41,0,1,1,45.5,5.09,40.46,40.46,0,0,1,85.91,45.5Z"/></g></g></svg>